HIERARCHY
ROOT hip
{
	OFFSET 0.000000 0.000000 0.000000 
	CHANNELS 6 Xposition Yposition Zposition Xrotation Zrotation Yrotation
	JOINT abdomen
	{
		OFFSET 0.000000 3.402643 0.000000 
		CHANNELS 3 Xrotation Zrotation Yrotation
		JOINT chest
		{
			OFFSET 0.000000 8.438565 -0.680529 
			CHANNELS 3 Xrotation Zrotation Yrotation
			JOINT neck
			{
				OFFSET 0.000000 10.207942 -0.272212 
				CHANNELS 3 Xrotation Zrotation Yrotation
				JOINT head
				{
					OFFSET 0.000000 3.130431 0.000000 
					CHANNELS 3 Xrotation Zrotation Yrotation
					End Site
					{
						OFFSET 0.000000 3.130435 0.000000 
					}
				}
			}
			JOINT lCollar
			{
				OFFSET 3.470700 6.669187 -0.816635 
				CHANNELS 3 Yrotation Zrotation Xrotation
				JOINT lShldr
				{
					OFFSET 3.198488 0.000000 0.000000 
					CHANNELS 3 Zrotation Yrotation Xrotation
					JOINT lForeArm
					{
						OFFSET 10.139888 0.000000 0.000000 
						CHANNELS 3 Yrotation Zrotation Xrotation
						JOINT lHand
						{
							OFFSET 8.370511 0.000000 0.000000 
							CHANNELS 3 Zrotation Yrotation Xrotation
							End Site
							{
								OFFSET 4.083176 0.000000 0.000000 
							}
						}
					}
				}
			}
			JOINT rCollar
			{
				OFFSET -3.470700 6.669187 -0.816635 
				CHANNELS 3 Yrotation Zrotation Xrotation
				JOINT rShldr
				{
					OFFSET -3.198488 0.000000 0.000000 
					CHANNELS 3 Zrotation Yrotation Xrotation
					JOINT rForeArm
					{
						OFFSET -10.139888 0.000000 0.000000 
						CHANNELS 3 Yrotation Zrotation Xrotation
						JOINT rHand
						{
							OFFSET -8.370511 0.000000 0.000000 
							CHANNELS 3 Zrotation Yrotation Xrotation
							End Site
							{
								OFFSET -4.083176 0.000000 0.000000 
							}
						}
					}
				}
			}
		}
	}
	JOINT lThigh
	{
		OFFSET 5.308129 -1.633274 1.361059 
		CHANNELS 3 Xrotation Zrotation Yrotation
		JOINT lShin
		{
			OFFSET -2.041588 -20.007561 0.000000 
			CHANNELS 3 Xrotation Zrotation Yrotation
			JOINT lFoot
			{
				OFFSET 0.000000 -19.190928 -1.224953 
				CHANNELS 3 Xrotation Yrotation Zrotation
				End Site
				{
					OFFSET 0.000000 -2.449906 4.627600 
				}
			}
		}
	}
	JOINT rThigh
	{
		OFFSET -5.308129 -1.633274 1.361059 
		CHANNELS 3 Xrotation Zrotation Yrotation
		JOINT rShin
		{
			OFFSET 2.041588 -20.007561 0.000000 
			CHANNELS 3 Xrotation Zrotation Yrotation
			JOINT rFoot
			{
				OFFSET 0.000000 -19.190928 -1.224953 
				CHANNELS 3 Xrotation Yrotation Zrotation
				End Site
				{
					OFFSET 0.000000 -2.449906 4.627600 
				}
			}
		}
	}
}
MOTION
Frames: 6
Frame Time: 0.033333
0.279097 48.205421 4.130550 -3.105469 4.912109 -5.156250 0.000000 0.000000 0.000000 -10.478516 -3.310547 5.810547 35.000000 -4.257813 -0.507813 -24.619141 3.125000 4.922407 -6.464844 0.292969 24.941406 -67.539063 10.507813 -19.168139 -42.656250 -18.125002 81.663193 -9.892578 -7.265625 -61.876236 0.693359 -9.970702 24.794924 63.603516 17.548828 72.841797 29.736328 -36.220703 45.826080 28.837893 4.462891 -80.663307 5.943538 -2.214380 16.271646 24.763983 6.999470 0.765356 -10.489400 -6.661190 -16.208553 -0.166436 -6.780140 -0.890238 35.305515 -2.236760 1.608077 -6.944365 3.340439 14.859463 
0.244456 48.180519 4.059256 -2.509766 4.716797 -5.048026 0.000000 0.000000 0.000000 -10.908203 -2.988281 5.888672 35.195313 -4.140293 -0.498558 -24.599611 3.251953 5.078125 -6.699219 0.683594 24.980465 -68.691406 9.658202 -18.582348 -40.976566 -14.628906 71.386719 -6.689452 -8.164063 -62.706463 0.810547 -10.136719 24.824217 64.033203 16.855469 73.183594 28.134766 -35.205078 45.390625 29.287109 3.730469 -80.702591 5.068072 -1.845496 16.356167 25.111389 6.842129 0.780926 -11.342858 -6.640828 -14.682019 -0.848600 -6.397178 -0.759921 35.418262 -2.304572 1.609726 -6.873112 3.207608 12.527786 
0.251552 48.146233 4.015195 -2.187500 4.648468 -4.725742 0.000000 0.000000 0.000000 -11.289063 -2.812500 5.907724 35.712891 -3.984375 -0.498047 -24.746094 3.408203 5.313027 -7.412109 1.093750 24.980282 -70.029297 9.082031 -17.937912 -40.537109 -12.050781 65.058594 -4.511718 -8.632813 -63.224125 1.298828 -10.244142 24.904079 64.228516 15.625000 73.547554 27.089846 -34.707027 45.503609 29.902342 3.535156 -80.712891 4.416444 -1.782740 16.413572 25.380133 7.004945 0.732408 -11.700824 -6.772684 -13.999796 -1.034182 -6.506005 -0.778576 35.134907 -1.972615 1.654051 -6.623919 3.147027 11.110791 
0.273619 48.212082 4.018527 -2.910156 4.707031 -4.423828 0.000000 0.000000 0.000000 -10.380859 -2.890625 5.908203 35.732422 -3.623047 -0.468750 -24.648438 3.701171 5.644531 -7.138672 0.751953 24.980289 -70.078125 8.046876 -17.762302 -40.625004 -10.917968 62.900394 -3.349610 -8.300781 -63.535149 1.044922 -9.355469 24.874634 62.978516 14.453126 73.293457 27.285156 -34.853516 46.962894 31.435547 5.097656 -80.605469 5.228073 -2.017909 16.362553 25.177691 7.310166 0.810804 -11.017494 -7.269882 -14.996785 -0.107567 -6.868331 -0.914701 34.871124 -1.572981 1.726695 -6.002811 3.228310 12.284257 
0.318231 48.269302 3.975157 -3.417969 4.785156 -3.994084 0.000000 0.000000 0.000000 -9.433594 -2.978516 5.888164 35.068359 -3.261719 -0.440009 -24.355467 3.857421 5.508470 -6.191406 0.410156 24.951172 -69.921875 6.201172 -17.558592 -40.703121 -10.205079 63.302513 -3.974609 -8.056641 -63.399803 -0.156250 -8.554687 24.658205 61.689449 13.740236 72.910156 28.105467 -34.951168 48.759769 32.568359 6.728516 -80.438309 5.548187 -2.347856 16.228516 25.149351 7.774476 0.915301 -10.381085 -7.699642 -16.019661 0.146051 -7.166677 -1.019860 35.359795 -1.299689 1.821163 -5.961294 3.009668 13.205265 
0.362442 48.233536 3.925692 -3.330078 5.058594 -3.544922 0.000000 0.000000 0.000000 -9.453124 -3.105469 5.858845 34.804688 -3.125000 -0.419922 -23.964844 3.847656 5.283204 -6.005859 0.957031 24.990068 -70.683594 4.970703 -17.088999 -41.044922 -10.087891 64.560547 -5.166016 -8.203126 -63.085938 -0.800781 -8.847656 24.550781 61.943359 13.095703 73.166267 28.378906 -34.960938 49.995831 32.890621 7.431641 -80.312500 5.279874 -2.858290 16.063114 25.195663 8.040174 1.011022 -10.728658 -7.778195 -15.230601 -0.303110 -7.724391 -1.185845 36.080379 -1.006665 1.950930 -6.530260 2.700666 12.343614 
